<svg xmlns="http://www.w3.org/2000/svg" x="0px" y="0px" width="100" height="100" viewBox="0 0 48 48">
<linearGradient id="MzObub4pktJFWBq3OsnpJa_hwDzHF1W8Qnw_gr1" x1="12.839" x2="41.398" y1="-6.188" y2="43.278" gradientUnits="userSpaceOnUse"><stop offset="0" stop-color="#ffffff" stop-opacity="0.2"></stop><stop offset="1" stop-color="#ffffff" stop-opacity="0.9"></stop></linearGradient><polygon fill="url(#MzObub4pktJFWBq3OsnpJa_hwDzHF1W8Qnw_gr1)" points="25,0 39,23 25,31"></polygon>
<linearGradient id="MzObub4pktJFWBq3OsnpJb_hwDzHF1W8Qnw_gr2" x1="16.332" x2="42.135" y1="12.987" y2="57.679" gradientUnits="userSpaceOnUse"><stop offset="0" stop-color="#ffffff" stop-opacity="0.2"></stop><stop offset="1" stop-color="#ffffff" stop-opacity="0.9"></stop></linearGradient><polygon fill="url(#MzObub4pktJFWBq3OsnpJb_hwDzHF1W8Qnw_gr2)" points="11,28 25,36 39,28 25,48"></polygon>
<linearGradient id="MzObub4pktJFWBq3OsnpJc_hwDzHF1W8Qnw_gr3" x1="27.176" x2="38.202" y1="29.644" y2="48.741" gradientUnits="userSpaceOnUse"><stop offset="0" stop-color="#ffffff" stop-opacity="0.2"></stop><stop offset="1" stop-color="#ffffff" stop-opacity="0.9"></stop></linearGradient><polygon fill="url(#MzObub4pktJFWBq3OsnpJc_hwDzHF1W8Qnw_gr3)" points="25,36 39,28 25,48"></polygon>
<linearGradient id="MzObub4pktJFWBq3OsnpJd_hwDzHF1W8Qnw_gr4" x1="21.537" x2="57.893" y1="16.537" y2="52.893" gradientUnits="userSpaceOnUse"><stop offset="0" stop-color="#ffffff" stop-opacity="0.2"></stop><stop offset="1" stop-color="#ffffff" stop-opacity="0.9"></stop></linearGradient><polygon fill="url(#MzObub4pktJFWBq3OsnpJd_hwDzHF1W8Qnw_gr4)" points="39,23 25,17 25,31"></polygon>
<linearGradient id="MzObub4pktJFWBq3OsnpJe_hwDzHF1W8Qnw_gr5" x1="14.59" x2="29.367" y1="14.093" y2="39.688" gradientUnits="userSpaceOnUse"><stop offset="0" stop-color="#ffffff" stop-opacity="0.2"></stop><stop offset="1" stop-color="#ffffff" stop-opacity="0.9"></stop></linearGradient><polygon fill="url(#MzObub4pktJFWBq3OsnpJe_hwDzHF1W8Qnw_gr5)" points="25,17 11,23 25,31"></polygon>
<linearGradient id="MzObub4pktJFWBq3OsnpJf_hwDzHF1W8Qnw_gr6" x1="8.21" x2="28.59" y1="-15.397" y2="40.595" gradientUnits="userSpaceOnUse"><stop offset="0" stop-color="#ffffff" stop-opacity="0.2"></stop><stop offset="1" stop-color="#ffffff" stop-opacity="0.9"></stop></linearGradient><polygon fill="url(#MzObub4pktJFWBq3OsnpJf_hwDzHF1W8Qnw_gr6)" points="25,0 11,23 25,31"></polygon>
</svg>