<?xml version="1.0" encoding="UTF-8"?>
<svg width="24" height="24" viewBox="0 0 24 24" fill="none" xmlns="http://www.w3.org/2000/svg">
  <path d="M12 2C8.5 2 6.5 3.5 6 6.5C7 4.5 8.5 3.5 10.5 3.5C12.5 3.5 14 4.5 15 5.5C16 6.5 17 7 18.5 7C21 7 23 5.5 23.5 2.5C22.5 4.5 21 5.5 19 5.5C17 5.5 15.5 4.5 14.5 3.5C13.5 2.5 12.5 2 12 2Z" fill="#06B6D4"/>
  <path d="M12 9C8.5 9 6.5 10.5 6 13.5C7 11.5 8.5 10.5 10.5 10.5C12.5 10.5 14 11.5 15 12.5C16 13.5 17 14 18.5 14C21 14 23 12.5 23.5 9.5C22.5 11.5 21 12.5 19 12.5C17 12.5 15.5 11.5 14.5 10.5C13.5 9.5 12.5 9 12 9Z" fill="#06B6D4"/>
  <path d="M12 16C8.5 16 6.5 17.5 6 20.5C7 18.5 8.5 17.5 10.5 17.5C12.5 17.5 14 18.5 15 19.5C16 20.5 17 21 18.5 21C21 21 23 19.5 23.5 16.5C22.5 18.5 21 19.5 19 19.5C17 19.5 15.5 18.5 14.5 17.5C13.5 16.5 12.5 16 12 16Z" fill="#06B6D4"/>
</svg> 